<svg width="162" height="35" viewBox="0 0 162 35" fill="none" xmlns="http://www.w3.org/2000/svg">
<g id="DevTrails">
<path id="&#60;" d="M5.61035 19.0791L13.623 21.7744V26.2715L0.673828 20.998V17.1016L13.623 11.8281V16.3105L5.61035 19.0791Z" fill="#A458F6"/>
<path id="dev" d="M16.7617 19.958C16.7617 17.4482 17.3037 15.4707 18.3877 14.0254C19.4717 12.5801 20.9854 11.8574 22.9287 11.8574C24.3447 11.8574 25.5361 12.4141 26.5029 13.5273V5.5H31.4541V28H27.0156L26.7666 26.3008C25.751 27.6289 24.4619 28.293 22.8994 28.293C21.0146 28.293 19.5205 27.5703 18.417 26.125C17.3135 24.6797 16.7617 22.624 16.7617 19.958ZM21.6982 20.2656C21.6982 23.0781 22.5186 24.4844 24.1592 24.4844C25.2529 24.4844 26.0342 24.0254 26.5029 23.1074V17.0723C26.0537 16.1348 25.2822 15.666 24.1885 15.666C22.665 15.666 21.8398 16.8965 21.7129 19.3574L21.6982 20.2656ZM41.9277 28.293C39.4961 28.293 37.5283 27.5703 36.0244 26.125C34.5205 24.6699 33.7686 22.7803 33.7686 20.4561V20.0459C33.7686 18.4248 34.0664 16.9941 34.6621 15.7539C35.2676 14.5137 36.1465 13.5566 37.2988 12.8828C38.4512 12.1992 39.8184 11.8574 41.4004 11.8574C43.627 11.8574 45.3848 12.5508 46.6738 13.9375C47.9629 15.3145 48.6074 17.2383 48.6074 19.709V21.6279H38.793C38.9688 22.5166 39.3545 23.2148 39.9502 23.7227C40.5459 24.2305 41.3174 24.4844 42.2646 24.4844C43.8271 24.4844 45.0479 23.9375 45.9268 22.8438L48.1826 25.5098C47.5674 26.3594 46.6934 27.0381 45.5605 27.5459C44.4375 28.0439 43.2266 28.293 41.9277 28.293ZM41.3711 15.666C39.9258 15.666 39.0664 16.623 38.793 18.5371H43.7734V18.1562C43.793 17.3652 43.5928 16.7549 43.1729 16.3252C42.7529 15.8857 42.1523 15.666 41.3711 15.666ZM56.7227 22.126L59.2275 12.1504H64.4277L59.2568 28H54.2178L49.0469 12.1504H54.2617L56.7227 22.126Z" fill="#DDDDDD"/>
<path id="trails" d="M72.1338 8.20996V12.1504H74.7412V15.5781H72.1338V22.8291C72.1338 23.4248 72.2412 23.8398 72.4561 24.0742C72.6709 24.3086 73.0957 24.4258 73.7305 24.4258C74.2188 24.4258 74.6289 24.3965 74.9609 24.3379V27.8682C74.0723 28.1514 73.1445 28.293 72.1777 28.293C70.4785 28.293 69.2236 27.8926 68.4131 27.0918C67.6025 26.291 67.1973 25.0752 67.1973 23.4443V15.5781H65.1758V12.1504H67.1973V8.20996H72.1338ZM86.2842 16.6182L84.6582 16.501C83.1055 16.501 82.1094 16.9893 81.6699 17.9658V28H76.7334V12.1504H81.3623L81.5234 14.1865C82.3535 12.6338 83.5107 11.8574 84.9951 11.8574C85.5225 11.8574 85.9814 11.916 86.3721 12.0332L86.2842 16.6182ZM96.5527 28C96.377 27.6777 96.2207 27.2041 96.084 26.5791C95.1758 27.7217 93.9062 28.293 92.2754 28.293C90.7812 28.293 89.5117 27.8438 88.4668 26.9453C87.4219 26.0371 86.8994 24.8994 86.8994 23.5322C86.8994 21.8135 87.5342 20.5146 88.8037 19.6357C90.0732 18.7568 91.9189 18.3174 94.3408 18.3174H95.8643V17.4824C95.8643 16.0273 95.2344 15.2998 93.9746 15.2998C92.8027 15.2998 92.2168 15.876 92.2168 17.0283H87.2803C87.2803 15.4951 87.9297 14.25 89.2285 13.293C90.5371 12.3359 92.2021 11.8574 94.2236 11.8574C96.2451 11.8574 97.8418 12.3506 99.0137 13.3369C100.186 14.3232 100.786 15.6758 100.815 17.3945V24.4111C100.835 25.8662 101.06 26.9795 101.489 27.751V28H96.5527ZM93.4619 24.7773C94.0771 24.7773 94.585 24.6455 94.9854 24.3818C95.3955 24.1182 95.6885 23.8203 95.8643 23.4883V20.9541H94.4287C92.71 20.9541 91.8506 21.7256 91.8506 23.2686C91.8506 23.7178 92.002 24.084 92.3047 24.3672C92.6074 24.6406 92.9932 24.7773 93.4619 24.7773ZM108.77 28H103.818V12.1504H108.77V28ZM103.525 8.06348C103.525 7.36035 103.779 6.78418 104.287 6.33496C104.795 5.88574 105.454 5.66113 106.265 5.66113C107.075 5.66113 107.734 5.88574 108.242 6.33496C108.75 6.78418 109.004 7.36035 109.004 8.06348C109.004 8.7666 108.75 9.34277 108.242 9.79199C107.734 10.2412 107.075 10.4658 106.265 10.4658C105.454 10.4658 104.795 10.2412 104.287 9.79199C103.779 9.34277 103.525 8.7666 103.525 8.06348ZM117.031 28H112.08V5.5H117.031V28ZM128.384 23.5469C128.384 23.127 128.164 22.79 127.725 22.5361C127.285 22.2822 126.45 22.0186 125.22 21.7451C123.989 21.4717 122.974 21.1152 122.173 20.6758C121.372 20.2266 120.762 19.6846 120.342 19.0498C119.922 18.415 119.712 17.6875 119.712 16.8672C119.712 15.4121 120.312 14.2158 121.514 13.2783C122.715 12.3311 124.287 11.8574 126.23 11.8574C128.32 11.8574 130 12.3311 131.27 13.2783C132.539 14.2256 133.174 15.4707 133.174 17.0137H128.223C128.223 15.7441 127.554 15.1094 126.216 15.1094C125.698 15.1094 125.264 15.2559 124.912 15.5488C124.561 15.832 124.385 16.1885 124.385 16.6182C124.385 17.0576 124.6 17.4141 125.029 17.6875C125.459 17.9609 126.143 18.1855 127.08 18.3613C128.027 18.5371 128.857 18.7471 129.57 18.9912C131.953 19.8115 133.145 21.2812 133.145 23.4004C133.145 24.8457 132.5 26.0225 131.211 26.9307C129.932 27.8389 128.271 28.293 126.23 28.293C124.873 28.293 123.662 28.0488 122.598 27.5605C121.533 27.0723 120.703 26.4082 120.107 25.5684C119.512 24.7285 119.214 23.8447 119.214 22.917H123.828C123.848 23.6494 124.092 24.1865 124.561 24.5283C125.029 24.8604 125.63 25.0264 126.362 25.0264C127.036 25.0264 127.539 24.8896 127.871 24.6162C128.213 24.3428 128.384 23.9863 128.384 23.5469Z" fill="#A458F6"/>
<path id="/" d="M138.076 29.8311H134.575L141.855 6.67188H145.371L138.076 29.8311Z" fill="#F2F2F2"/>
<path id="&#62;" d="M155.595 19.0352L147.626 16.3252V11.8428L160.502 17.1162V21.0127L147.626 26.2861V21.8037L155.595 19.0352Z" fill="#A458F6"/>
</g>
</svg>
